<mxfile host="app.diagrams.net" agent="Mozilla/5.0 (Windows NT 10.0; Win64; x64) AppleWebKit/537.36 (KHTML, like Gecko) Chrome/128.0.0.0 Safari/537.36" version="24.7.13">
  <diagram id="R2lEEEUBdFMjLlhIrx00" name="Page-1">
    <mxGraphModel dx="1839" dy="538" grid="1" gridSize="10" guides="1" tooltips="1" connect="1" arrows="1" fold="1" page="1" pageScale="1" pageWidth="850" pageHeight="1100" math="0" shadow="0" extFonts="Permanent Marker^https://fonts.googleapis.com/css?family=Permanent+Marker">
      <root>
        <mxCell id="0" />
        <mxCell id="1" parent="0" />
        <mxCell id="EgD6Y7CnnE7K-RbBaXwW-1" value="Клиент" style="rounded=0;whiteSpace=wrap;html=1;" vertex="1" parent="1">
          <mxGeometry x="-760" y="160" width="120" height="40" as="geometry" />
        </mxCell>
        <mxCell id="EgD6Y7CnnE7K-RbBaXwW-3" value="Сделка" style="rounded=0;whiteSpace=wrap;html=1;" vertex="1" parent="1">
          <mxGeometry x="-520" y="360" width="120" height="40" as="geometry" />
        </mxCell>
        <mxCell id="EgD6Y7CnnE7K-RbBaXwW-4" value="Автомобиль" style="rounded=0;whiteSpace=wrap;html=1;" vertex="1" parent="1">
          <mxGeometry x="-280" y="160" width="120" height="40" as="geometry" />
        </mxCell>
        <mxCell id="EgD6Y7CnnE7K-RbBaXwW-5" value="&lt;u&gt;Гос. номер&lt;/u&gt;" style="ellipse;whiteSpace=wrap;html=1;" vertex="1" parent="1">
          <mxGeometry x="-350" y="40" width="70" height="30" as="geometry" />
        </mxCell>
        <mxCell id="EgD6Y7CnnE7K-RbBaXwW-6" value="Марка" style="ellipse;whiteSpace=wrap;html=1;" vertex="1" parent="1">
          <mxGeometry x="-260" y="40" width="60" height="30" as="geometry" />
        </mxCell>
        <mxCell id="EgD6Y7CnnE7K-RbBaXwW-7" value="Модель" style="ellipse;whiteSpace=wrap;html=1;" vertex="1" parent="1">
          <mxGeometry x="-180" y="40" width="60" height="30" as="geometry" />
        </mxCell>
      </root>
    </mxGraphModel>
  </diagram>
</mxfile>
